<?xml version="1.0" encoding="UTF-8"?>
<!DOCTYPE svg PUBLIC "-//W3C//DTD SVG 1.1//EN" "http://www.w3.org/Graphics/SVG/1.1/DTD/svg11.dtd">
<!-- Creator: CorelDRAW -->
<svg xmlns="http://www.w3.org/2000/svg" xml:space="preserve" width="32px" height="31px" version="1.1" style="shape-rendering:geometricPrecision; text-rendering:geometricPrecision; image-rendering:optimizeQuality; fill-rule:evenodd; clip-rule:evenodd"
viewBox="0 0 31.94 30.66"
 xmlns:xlink="http://www.w3.org/1999/xlink"
 xmlns:xodm="http://www.corel.com/coreldraw/odm/2003">
 <defs>
  <style type="text/css">
   <![CDATA[
    .fil0 {fill:none}
    .fil2 {fill:#E6E7E8}
    .fil1 {fill:#C2D13E}
    .fil4 {fill:#2A569F}
    .fil3 {fill:#00D48D}
   ]]>
  </style>
    <clipPath id="id0">
     <path d="M3.47 1.11l24.96 0c1.25,0 2.27,1.03 2.27,2.28l0 21.11c0,2.61 -2.93,4.74 -5.82,5.06 -2.25,0.31 -0.13,-1.18 -1.57,-2.79l-19.84 0c-1.25,0 -2.27,-1.02 -2.27,-2.27l0 -21.11c0,-1.25 1.02,-2.28 2.27,-2.28z"/>
    </clipPath>
 </defs>
 <g id="Camada_x0020_1">
  <metadata id="CorelCorpID_0Corel-Layer"/>
  <g id="_3185916246992">
   <rect class="fil0" width="31.94" height="30.66"/>
   <g>
    <path class="fil1" d="M24.97 30.27c-0.51,0.07 -1.13,0.11 -1.55,-0.25 -0.38,-0.33 -0.39,-0.77 -0.33,-1.23 0.06,-0.52 0.13,-0.9 -0.13,-1.31l-19.49 0c-1.64,0 -2.99,-1.34 -2.99,-2.98l0 -21.11c0,-1.65 1.35,-2.99 2.99,-2.99l24.96 0c1.64,0 2.98,1.34 2.98,2.99l0 21.11c0,1.59 -0.89,2.96 -2.08,3.94 -1.22,1 -2.8,1.65 -4.36,1.83z"/>
   </g>
   <path class="fil2" d="M3.47 1.11l24.96 0c1.25,0 2.27,1.03 2.27,2.28l0 21.11c0,2.61 -2.93,4.74 -5.82,5.06 -2.25,0.31 -0.13,-1.18 -1.57,-2.79l-19.84 0c-1.25,0 -2.27,-1.02 -2.27,-2.27l0 -21.11c0,-1.25 1.02,-2.28 2.27,-2.28z"/>
   <g style="clip-path:url(#id0)">
    <g>
     <g>
      <path id="_1" class="fil3" d="M0.71 18.68l30.48 0 0 11.29 -30.48 0 0 -11.29zm2.04 5.41l0.05 -0.38 0.1 -1.3 0.06 -0.86c0.21,0 0.39,0 0.51,0 0.1,0 0.26,0 0.47,0 0.01,0.1 0.03,0.19 0.04,0.24 0.01,0.06 0.03,0.16 0.08,0.32 0.04,0.16 0.07,0.3 0.1,0.42 0.02,0.12 0.06,0.32 0.11,0.6 0.05,-0.19 0.1,-0.36 0.14,-0.5 0.04,-0.14 0.09,-0.3 0.16,-0.48 0.06,-0.18 0.1,-0.29 0.12,-0.35 0.01,-0.05 0.04,-0.14 0.07,-0.25 0.17,0 0.35,0 0.52,0 0.11,0 0.27,0 0.48,0 -0.03,0.42 -0.04,0.77 -0.05,1.07 -0.01,0.59 -0.02,1 -0.02,1.22 0,0.04 0,0.13 0,0.25 -0.15,-0.01 -0.26,-0.01 -0.33,-0.01 -0.09,0 -0.2,0 -0.33,0.01 0.01,-0.12 0.02,-0.38 0.04,-0.8 0.01,-0.42 0.02,-0.69 0.02,-0.8 0,-0.06 0,-0.13 -0.01,-0.22l-0.23 0.76 -0.33 1.06c-0.15,-0.01 -0.25,-0.01 -0.31,-0.01 -0.07,0 -0.19,0 -0.34,0.01l-0.21 -1.03 -0.13 -0.54c0,-0.02 -0.01,-0.05 -0.02,-0.08 0,-0.03 -0.01,-0.09 -0.02,-0.16l-0.05 0.51 -0.05 1.06 -0.01 0.24c-0.16,-0.01 -0.27,-0.01 -0.31,-0.01 -0.06,0 -0.17,0 -0.32,0.01zm5.31 0c-0.13,-0.01 -0.25,-0.01 -0.33,-0.01 -0.12,0 -0.23,0 -0.34,0.01l0 -0.26c-0.04,0.06 -0.08,0.1 -0.11,0.13 -0.03,0.03 -0.06,0.05 -0.09,0.07 -0.04,0.02 -0.08,0.04 -0.12,0.06 -0.04,0.01 -0.09,0.02 -0.15,0.03 -0.05,0.01 -0.11,0.02 -0.17,0.02 -0.09,0 -0.18,-0.02 -0.26,-0.04 -0.08,-0.02 -0.16,-0.06 -0.22,-0.12 -0.06,-0.05 -0.1,-0.11 -0.13,-0.18 -0.02,-0.07 -0.03,-0.15 -0.03,-0.24 0,-0.03 0,-0.06 0,-0.11l0.03 -0.42c0.01,-0.16 0.02,-0.33 0.02,-0.52 0.01,-0.11 0.01,-0.22 0.01,-0.32 0.15,0 0.27,0 0.37,0 0.11,0 0.22,0 0.34,0l-0.05 0.71c-0.01,0.1 -0.01,0.18 -0.01,0.22 0,0.04 -0.01,0.06 -0.01,0.07 0,0.14 0.03,0.23 0.08,0.27 0.05,0.05 0.11,0.07 0.18,0.07 0.02,0 0.05,0 0.08,-0.01 0.03,-0.01 0.06,-0.02 0.08,-0.04 0.02,-0.01 0.04,-0.03 0.06,-0.06 0.02,-0.02 0.04,-0.05 0.06,-0.08 0.01,-0.04 0.03,-0.09 0.04,-0.13 0.01,-0.07 0.02,-0.15 0.03,-0.25 0,-0.08 0.01,-0.2 0.02,-0.38l0.01 -0.39c0.15,0 0.28,0 0.38,0 0.11,0 0.22,0 0.33,0 -0.03,0.31 -0.05,0.61 -0.07,0.9 -0.01,0.28 -0.02,0.61 -0.03,1zm0.39 0l0.04 -0.4 0.06 -1.39 0.02 -0.75c0.17,0 0.29,0 0.37,0 0.11,0 0.23,0 0.35,0l-0.03 0.57 -0.07 1.4 -0.01 0.57c-0.13,0 -0.24,-0.01 -0.34,-0.01l-0.39 0.01zm2.44 -0.55c-0.02,0.11 -0.04,0.21 -0.06,0.31l-0.04 0.22c-0.11,0.03 -0.2,0.05 -0.27,0.06 -0.06,0 -0.13,0.01 -0.19,0.01 -0.1,0 -0.19,-0.01 -0.27,-0.03 -0.07,-0.02 -0.14,-0.05 -0.19,-0.1 -0.05,-0.05 -0.09,-0.1 -0.11,-0.16 -0.01,-0.07 -0.02,-0.13 -0.02,-0.2 0,-0.01 0,-0.04 0,-0.07 0,-0.03 0,-0.1 0.01,-0.21l0.04 -0.64 -0.28 0c0.01,-0.09 0.01,-0.2 0.02,-0.34l0 -0.17 0.3 0c0,-0.06 0.01,-0.18 0.02,-0.38l0.3 -0.06c0.06,-0.01 0.18,-0.04 0.36,-0.09 -0.01,0.16 -0.02,0.34 -0.02,0.53l0.4 0c-0.01,0.25 -0.01,0.42 -0.01,0.51l-0.41 0 -0.02 0.46c0,0.07 0,0.12 0,0.14 0,0.06 0,0.11 0.02,0.15 0.01,0.04 0.03,0.06 0.06,0.08 0.03,0.02 0.07,0.03 0.11,0.03 0.02,0 0.05,0 0.08,-0.01 0.03,0 0.09,-0.02 0.17,-0.04zm0.32 -1.59c0.01,-0.15 0.01,-0.26 0.01,-0.35 0,-0.02 0,-0.06 0,-0.1 0.14,0 0.26,0.01 0.36,0.01 0.13,0 0.24,-0.01 0.34,-0.01 0,0.04 0,0.07 0,0.1l-0.01 0.23c-0.01,0.03 -0.01,0.07 -0.01,0.12 -0.11,0 -0.22,0 -0.33,0 -0.11,0 -0.23,0 -0.36,0zm-0.11 2.14c0.01,-0.16 0.03,-0.28 0.03,-0.38 0.01,-0.1 0.02,-0.22 0.03,-0.37 0.01,-0.16 0.01,-0.32 0.02,-0.51 0,-0.18 0.01,-0.4 0.01,-0.64 0.15,0 0.28,0 0.37,0 0.08,0 0.2,0 0.36,0 -0.02,0.23 -0.04,0.44 -0.04,0.61 -0.01,0.18 -0.02,0.37 -0.02,0.57 0,0.35 -0.01,0.59 -0.01,0.72 -0.14,-0.01 -0.26,-0.01 -0.36,-0.01 -0.1,0 -0.23,0 -0.39,0.01zm2.88 -0.56c-0.02,0.07 -0.04,0.25 -0.09,0.53 -0.13,0.03 -0.25,0.05 -0.34,0.06 -0.09,0.01 -0.19,0.02 -0.28,0.02 -0.14,0 -0.27,-0.01 -0.39,-0.03 -0.12,-0.02 -0.22,-0.06 -0.3,-0.11 -0.09,-0.06 -0.16,-0.12 -0.22,-0.2 -0.06,-0.07 -0.1,-0.17 -0.13,-0.27 -0.03,-0.11 -0.05,-0.22 -0.05,-0.33 0,-0.16 0.03,-0.32 0.09,-0.47 0.06,-0.15 0.14,-0.27 0.24,-0.35 0.09,-0.09 0.2,-0.15 0.32,-0.18 0.13,-0.04 0.25,-0.06 0.38,-0.06 0.13,0 0.26,0.02 0.38,0.05 0.13,0.03 0.23,0.09 0.31,0.17 0.09,0.08 0.15,0.18 0.18,0.28 0.04,0.1 0.06,0.21 0.06,0.33 0,0.07 -0.01,0.15 -0.02,0.24l-1.24 0c0,0.02 0,0.04 0,0.05 0,0.14 0.04,0.23 0.13,0.3 0.09,0.06 0.2,0.09 0.33,0.09 0.08,0 0.17,-0.01 0.27,-0.03 0.1,-0.02 0.22,-0.05 0.37,-0.09zm-1.09 -0.6l0.58 0c0.01,-0.03 0.01,-0.04 0.01,-0.06 0,-0.06 -0.01,-0.12 -0.04,-0.16 -0.02,-0.05 -0.05,-0.08 -0.09,-0.1 -0.04,-0.02 -0.09,-0.03 -0.14,-0.03 -0.03,0 -0.07,0 -0.1,0.01 -0.03,0.01 -0.06,0.03 -0.09,0.05 -0.02,0.03 -0.05,0.05 -0.06,0.08 -0.02,0.03 -0.04,0.06 -0.04,0.09 -0.01,0.03 -0.02,0.07 -0.03,0.12zm1.48 1.16l0.05 -0.9 0.03 -0.7 0 -0.3c0.13,0 0.25,0 0.35,0 0.11,0 0.22,0 0.32,0l-0.01 0.25c0.04,-0.05 0.07,-0.09 0.09,-0.12 0.03,-0.02 0.06,-0.05 0.09,-0.07 0.04,-0.03 0.08,-0.05 0.12,-0.06 0.03,-0.02 0.08,-0.03 0.13,-0.04 0.04,0 0.1,-0.01 0.15,-0.01 0.06,0 0.11,0.01 0.16,0.02 0.05,0.01 0.1,0.02 0.13,0.04 0.04,0.01 0.07,0.03 0.1,0.05 0.03,0.02 0.05,0.05 0.07,0.07 0.02,0.03 0.04,0.07 0.07,0.12 0.05,-0.08 0.11,-0.14 0.16,-0.18 0.06,-0.04 0.13,-0.07 0.2,-0.09 0.07,-0.02 0.15,-0.03 0.23,-0.03 0.1,0 0.19,0.02 0.28,0.05 0.09,0.03 0.17,0.08 0.23,0.16 0.06,0.07 0.08,0.17 0.08,0.29 0,0.06 0,0.15 -0.01,0.26 0,0.12 -0.01,0.32 -0.03,0.6 -0.01,0.28 -0.02,0.47 -0.02,0.59 -0.11,-0.01 -0.21,-0.01 -0.31,-0.01 -0.13,0 -0.26,0 -0.39,0.01 0.01,-0.16 0.02,-0.36 0.03,-0.6 0.02,-0.23 0.02,-0.4 0.02,-0.49 0,-0.08 -0.01,-0.14 -0.02,-0.18 -0.02,-0.04 -0.04,-0.06 -0.07,-0.08 -0.03,-0.01 -0.06,-0.02 -0.09,-0.02 -0.04,0 -0.07,0.01 -0.09,0.02 -0.03,0.02 -0.05,0.04 -0.07,0.07 -0.03,0.04 -0.05,0.09 -0.07,0.15 -0.02,0.05 -0.03,0.13 -0.03,0.23 -0.01,0.1 -0.02,0.23 -0.02,0.4l-0.02 0.5c-0.12,-0.01 -0.24,-0.01 -0.34,-0.01 -0.1,0 -0.23,0 -0.37,0.01 0.01,-0.11 0.03,-0.3 0.04,-0.56 0.01,-0.26 0.02,-0.43 0.02,-0.52 0,-0.08 -0.01,-0.13 -0.02,-0.17 -0.01,-0.04 -0.03,-0.06 -0.06,-0.09 -0.02,-0.02 -0.06,-0.03 -0.1,-0.03 -0.05,0 -0.09,0.01 -0.12,0.04 -0.03,0.03 -0.06,0.07 -0.09,0.12 -0.02,0.06 -0.04,0.13 -0.05,0.22 -0.01,0.1 -0.02,0.24 -0.03,0.43 0,0.19 -0.01,0.38 -0.01,0.56 -0.14,-0.01 -0.26,-0.01 -0.35,-0.01 -0.09,0 -0.21,0 -0.36,0.01zm3.3 0.87c0.03,-0.26 0.05,-0.51 0.06,-0.76 0.03,-0.44 0.04,-0.8 0.05,-1.09 0.01,-0.3 0.02,-0.59 0.02,-0.87 0.24,-0.04 0.43,-0.07 0.56,-0.08 0.14,-0.01 0.27,-0.02 0.41,-0.02 0.17,0 0.32,0.02 0.46,0.06 0.15,0.03 0.26,0.1 0.35,0.19 0.08,0.1 0.15,0.21 0.19,0.34 0.05,0.13 0.07,0.27 0.07,0.41 0,0.13 -0.02,0.26 -0.05,0.38 -0.04,0.12 -0.09,0.23 -0.17,0.33 -0.07,0.1 -0.15,0.17 -0.25,0.22 -0.09,0.04 -0.2,0.07 -0.32,0.07 -0.05,0 -0.11,-0.01 -0.18,-0.02 -0.06,-0.01 -0.12,-0.03 -0.17,-0.05 -0.06,-0.03 -0.1,-0.05 -0.14,-0.07 -0.04,-0.02 -0.08,-0.06 -0.14,-0.1l-0.02 0.52c-0.01,0.24 -0.01,0.42 -0.01,0.54 -0.14,0 -0.25,-0.01 -0.35,-0.01 -0.08,0 -0.21,0.01 -0.37,0.01zm0.82 -2.24c-0.01,0.05 -0.02,0.1 -0.02,0.13 -0.01,0.04 -0.01,0.08 -0.01,0.14 -0.01,0.06 -0.01,0.11 -0.01,0.15 0,0.1 0.02,0.18 0.05,0.25 0.03,0.07 0.07,0.12 0.12,0.16 0.05,0.03 0.11,0.05 0.17,0.05 0.07,0 0.13,-0.02 0.18,-0.05 0.06,-0.04 0.1,-0.1 0.13,-0.18 0.03,-0.08 0.05,-0.16 0.05,-0.26 0,-0.13 -0.03,-0.24 -0.1,-0.32 -0.07,-0.08 -0.16,-0.12 -0.29,-0.12 -0.08,0 -0.17,0.02 -0.27,0.05zm1.6 1.37l0.06 -0.83 0.02 -0.47c0,-0.09 0,-0.18 0,-0.27 0,-0.09 0,-0.2 0,-0.33 0.14,0 0.25,0 0.33,0 0.1,0 0.21,0 0.34,0l-0.01 0.21c0.05,-0.06 0.09,-0.1 0.12,-0.12 0.02,-0.03 0.06,-0.05 0.1,-0.07 0.03,-0.03 0.07,-0.04 0.11,-0.05 0.05,-0.01 0.09,-0.02 0.13,-0.02 0.05,0 0.09,0.01 0.14,0.02 0.01,0.14 0.01,0.25 0.01,0.33l0.02 0.29c-0.07,-0.02 -0.13,-0.03 -0.19,-0.03 -0.07,0 -0.13,0.01 -0.18,0.03 -0.05,0.02 -0.1,0.06 -0.14,0.1 -0.03,0.05 -0.07,0.1 -0.09,0.17 -0.02,0.06 -0.04,0.17 -0.05,0.31 -0.01,0.14 -0.01,0.3 -0.01,0.49 0,0.06 0,0.14 0,0.24 -0.11,-0.01 -0.23,-0.01 -0.34,-0.01 -0.11,0 -0.24,0 -0.37,0.01zm3.3 -0.56c-0.01,0.07 -0.04,0.25 -0.09,0.53 -0.13,0.03 -0.25,0.05 -0.34,0.06 -0.09,0.01 -0.19,0.02 -0.28,0.02 -0.14,0 -0.27,-0.01 -0.39,-0.03 -0.12,-0.02 -0.22,-0.06 -0.3,-0.11 -0.09,-0.06 -0.16,-0.12 -0.22,-0.2 -0.06,-0.07 -0.1,-0.17 -0.13,-0.27 -0.03,-0.11 -0.04,-0.22 -0.04,-0.33 0,-0.16 0.03,-0.32 0.09,-0.47 0.05,-0.15 0.13,-0.27 0.23,-0.35 0.09,-0.09 0.2,-0.15 0.32,-0.18 0.13,-0.04 0.25,-0.06 0.38,-0.06 0.14,0 0.26,0.02 0.39,0.05 0.12,0.03 0.22,0.09 0.31,0.17 0.08,0.08 0.14,0.18 0.18,0.28 0.03,0.1 0.05,0.21 0.05,0.33 0,0.07 -0.01,0.15 -0.02,0.24l-1.24 0c0,0.02 0,0.04 0,0.05 0,0.14 0.04,0.23 0.13,0.3 0.09,0.06 0.21,0.09 0.34,0.09 0.07,0 0.16,-0.01 0.26,-0.03 0.1,-0.02 0.22,-0.05 0.37,-0.09zm-1.09 -0.6l0.59 0c0,-0.03 0,-0.04 0,-0.06 0,-0.06 -0.01,-0.12 -0.03,-0.16 -0.03,-0.05 -0.06,-0.08 -0.1,-0.1 -0.04,-0.02 -0.08,-0.03 -0.14,-0.03 -0.03,0 -0.06,0 -0.1,0.01 -0.03,0.01 -0.06,0.03 -0.09,0.05 -0.02,0.03 -0.05,0.05 -0.06,0.08 -0.02,0.03 -0.03,0.06 -0.04,0.09 -0.01,0.03 -0.02,0.07 -0.03,0.12zm1.47 1.12c-0.01,-0.05 -0.01,-0.11 -0.02,-0.17 0,-0.06 -0.01,-0.14 -0.02,-0.25l-0.02 -0.13c0.12,0.04 0.22,0.08 0.3,0.1 0.08,0.03 0.15,0.04 0.22,0.04 0.06,0 0.11,-0.01 0.14,-0.02 0.04,-0.01 0.06,-0.03 0.08,-0.05 0.02,-0.02 0.03,-0.04 0.03,-0.06 0,-0.02 -0.01,-0.04 -0.02,-0.06 -0.02,-0.02 -0.04,-0.05 -0.09,-0.08 -0.09,-0.07 -0.18,-0.14 -0.25,-0.2 -0.07,-0.06 -0.13,-0.12 -0.16,-0.16 -0.04,-0.05 -0.07,-0.1 -0.09,-0.16 -0.02,-0.05 -0.03,-0.11 -0.03,-0.17 0,-0.1 0.03,-0.19 0.09,-0.28 0.05,-0.09 0.14,-0.16 0.24,-0.2 0.11,-0.04 0.24,-0.06 0.4,-0.06 0.16,0 0.37,0.02 0.62,0.07l0.03 0.52c-0.14,-0.06 -0.28,-0.09 -0.41,-0.09 -0.09,0 -0.16,0.01 -0.2,0.03 -0.04,0.02 -0.06,0.05 -0.06,0.09 0,0.02 0,0.03 0.01,0.04 0,0.01 0.01,0.03 0.02,0.04 0.02,0.01 0.03,0.03 0.05,0.04 0.02,0.02 0.06,0.05 0.13,0.1 0.07,0.05 0.13,0.1 0.17,0.13 0.06,0.05 0.11,0.1 0.15,0.15 0.03,0.05 0.06,0.1 0.08,0.15 0.01,0.05 0.02,0.11 0.02,0.17 0,0.08 -0.02,0.17 -0.06,0.24 -0.04,0.07 -0.1,0.13 -0.18,0.18 -0.08,0.05 -0.17,0.09 -0.27,0.11 -0.09,0.02 -0.19,0.03 -0.29,0.03 -0.07,0 -0.15,-0.01 -0.26,-0.02 -0.1,-0.02 -0.22,-0.04 -0.35,-0.07zm1.92 -1.32c0.02,-0.12 0.03,-0.21 0.04,-0.25 0,-0.05 0.01,-0.12 0.03,-0.22 0.33,-0.08 0.62,-0.12 0.87,-0.12 0.13,0 0.26,0.02 0.38,0.05 0.11,0.03 0.2,0.09 0.27,0.16 0.06,0.07 0.09,0.18 0.09,0.31 0,0.07 -0.01,0.23 -0.02,0.47 -0.02,0.24 -0.04,0.56 -0.04,0.96 -0.12,-0.01 -0.23,-0.01 -0.35,-0.01 -0.11,0 -0.23,0 -0.35,0.01 0.02,-0.14 0.03,-0.42 0.05,-0.85 -0.04,0.02 -0.08,0.04 -0.1,0.05 -0.03,0.01 -0.07,0.03 -0.13,0.05 -0.07,0.02 -0.12,0.03 -0.15,0.05 -0.04,0.01 -0.07,0.03 -0.1,0.05 -0.02,0.02 -0.04,0.04 -0.05,0.07 -0.01,0.02 -0.02,0.04 -0.02,0.07 0,0.04 0.02,0.08 0.05,0.11 0.03,0.03 0.08,0.05 0.15,0.05 0.03,0 0.05,-0.01 0.08,-0.01 0.03,0 0.07,-0.01 0.12,-0.03 -0.04,0.09 -0.08,0.23 -0.12,0.41 -0.11,0.02 -0.2,0.03 -0.29,0.03 -0.15,0 -0.27,-0.03 -0.36,-0.07 -0.1,-0.04 -0.18,-0.11 -0.23,-0.21 -0.05,-0.09 -0.08,-0.19 -0.08,-0.28 0,-0.06 0.01,-0.12 0.03,-0.17 0.02,-0.06 0.05,-0.11 0.09,-0.17 0.04,-0.05 0.09,-0.1 0.15,-0.13 0.05,-0.04 0.13,-0.08 0.22,-0.11 0.1,-0.03 0.22,-0.07 0.37,-0.1 0.06,-0.01 0.11,-0.02 0.16,-0.04 0.05,-0.01 0.09,-0.02 0.11,-0.03 0.02,-0.01 0.04,-0.03 0.05,-0.04 0.02,-0.01 0.03,-0.03 0.03,-0.04 0.01,-0.02 0.01,-0.04 0.01,-0.05 0,-0.05 -0.02,-0.09 -0.05,-0.11 -0.04,-0.03 -0.1,-0.04 -0.17,-0.04 -0.2,0 -0.45,0.06 -0.74,0.18zm2 1.32c-0.01,-0.05 -0.01,-0.11 -0.01,-0.17 -0.01,-0.06 -0.02,-0.14 -0.03,-0.25l-0.01 -0.13c0.11,0.04 0.21,0.08 0.29,0.1 0.08,0.03 0.16,0.04 0.23,0.04 0.05,0 0.1,-0.01 0.14,-0.02 0.03,-0.01 0.06,-0.03 0.07,-0.05 0.02,-0.02 0.03,-0.04 0.03,-0.06 0,-0.02 -0.01,-0.04 -0.02,-0.06 -0.01,-0.02 -0.04,-0.05 -0.08,-0.08 -0.1,-0.07 -0.18,-0.14 -0.25,-0.2 -0.08,-0.06 -0.13,-0.12 -0.17,-0.16 -0.04,-0.05 -0.06,-0.1 -0.08,-0.16 -0.02,-0.05 -0.03,-0.11 -0.03,-0.17 0,-0.1 0.03,-0.19 0.08,-0.28 0.06,-0.09 0.14,-0.16 0.25,-0.2 0.11,-0.04 0.24,-0.06 0.39,-0.06 0.17,0 0.37,0.02 0.63,0.07l0.03 0.52c-0.15,-0.06 -0.28,-0.09 -0.41,-0.09 -0.09,0 -0.16,0.01 -0.2,0.03 -0.04,0.02 -0.06,0.05 -0.06,0.09 0,0.02 0,0.03 0,0.04 0.01,0.01 0.02,0.03 0.03,0.04 0.01,0.01 0.03,0.03 0.04,0.04 0.02,0.02 0.07,0.05 0.14,0.1 0.07,0.05 0.12,0.1 0.16,0.13 0.07,0.05 0.12,0.1 0.15,0.15 0.03,0.05 0.06,0.1 0.08,0.15 0.02,0.05 0.03,0.11 0.03,0.17 0,0.08 -0.02,0.17 -0.06,0.24 -0.04,0.07 -0.11,0.13 -0.19,0.18 -0.08,0.05 -0.17,0.09 -0.26,0.11 -0.1,0.02 -0.2,0.03 -0.3,0.03 -0.06,0 -0.15,-0.01 -0.25,-0.02 -0.11,-0.02 -0.22,-0.04 -0.36,-0.07z"/>
      <path class="fil4" d="M0.71 18.68l30.48 0 0 -17.93 -30.48 0 0 17.93zm2.92 -4.85l0.15 -1.25 0.36 -4.34 0.18 -2.85c0.72,0.01 1.28,0.01 1.7,0.01 0.33,0 0.86,0 1.56,-0.01 0.05,0.35 0.09,0.62 0.13,0.81 0.03,0.18 0.12,0.54 0.26,1.07 0.13,0.53 0.25,1 0.33,1.39 0.08,0.39 0.21,1.05 0.37,2 0.18,-0.65 0.33,-1.21 0.47,-1.67 0.14,-0.47 0.32,-1 0.53,-1.59 0.21,-0.6 0.34,-0.99 0.4,-1.17 0.06,-0.18 0.13,-0.46 0.23,-0.84 0.59,0.01 1.16,0.01 1.72,0.01 0.39,0 0.92,0 1.6,-0.01 -0.08,1.39 -0.13,2.58 -0.15,3.58 -0.05,1.95 -0.08,3.3 -0.08,4.03 0,0.15 0.01,0.43 0.02,0.83 -0.52,-0.01 -0.88,-0.01 -1.09,-0.01 -0.3,0 -0.67,0 -1.11,0.01 0.03,-0.37 0.07,-1.25 0.12,-2.65 0.04,-1.4 0.07,-2.29 0.07,-2.67 0,-0.17 -0.01,-0.41 -0.02,-0.71l-0.76 2.52 -1.1 3.51c-0.51,-0.01 -0.86,-0.01 -1.05,-0.01 -0.24,0 -0.61,0 -1.11,0.01l-0.72 -3.4 -0.42 -1.81c-0.02,-0.07 -0.03,-0.16 -0.05,-0.26 -0.02,-0.11 -0.05,-0.29 -0.1,-0.55l-0.14 1.71 -0.19 3.52 -0.02 0.79c-0.54,-0.01 -0.88,-0.01 -1.03,-0.01 -0.21,0 -0.56,0 -1.06,0.01zm11.57 0.76c0.51,0.18 0.95,0.31 1.33,0.38 0.38,0.08 0.72,0.11 1,0.11 0.21,0 0.4,-0.02 0.57,-0.07 0.16,-0.04 0.3,-0.1 0.4,-0.17 0.1,-0.07 0.19,-0.16 0.26,-0.27 0.07,-0.11 0.13,-0.23 0.17,-0.36 0.04,-0.13 0.06,-0.28 0.08,-0.46 0.01,-0.17 0.03,-0.41 0.04,-0.71 -0.15,0.14 -0.28,0.25 -0.4,0.34 -0.11,0.09 -0.25,0.17 -0.41,0.25 -0.16,0.08 -0.34,0.14 -0.53,0.19 -0.2,0.04 -0.4,0.06 -0.62,0.06 -0.49,0 -0.94,-0.12 -1.34,-0.36 -0.4,-0.25 -0.7,-0.59 -0.89,-1.02 -0.2,-0.44 -0.29,-0.91 -0.29,-1.42 0,-0.59 0.1,-1.13 0.31,-1.61 0.21,-0.48 0.52,-0.89 0.91,-1.23 0.39,-0.33 0.82,-0.56 1.29,-0.69 0.47,-0.12 1,-0.19 1.59,-0.19 0.34,0 0.73,0.02 1.16,0.07 0.43,0.04 1.02,0.13 1.77,0.27l-0.13 2.04 -0.12 2.24c-0.01,0.16 -0.01,0.3 -0.01,0.4l-0.05 2.01c-0.01,0.25 -0.04,0.5 -0.09,0.73 -0.04,0.21 -0.11,0.4 -0.21,0.59 -0.1,0.18 -0.23,0.34 -0.38,0.47 -0.16,0.15 -0.35,0.27 -0.55,0.36 -0.21,0.08 -0.45,0.16 -0.73,0.22 -0.31,0.05 -0.63,0.08 -0.96,0.08 -0.19,0 -0.42,-0.01 -0.69,-0.02 -0.27,-0.02 -0.56,-0.05 -0.84,-0.09 -0.29,-0.03 -0.54,-0.07 -0.75,-0.11 -0.21,-0.04 -0.47,-0.1 -0.79,-0.18l-0.04 -0.82c-0.01,-0.16 -0.02,-0.5 -0.06,-1.03zm4.03 -5.33c-0.25,-0.05 -0.46,-0.08 -0.66,-0.08 -0.35,0 -0.65,0.08 -0.91,0.22 -0.25,0.14 -0.45,0.35 -0.59,0.63 -0.14,0.28 -0.21,0.57 -0.21,0.88 0,0.22 0.03,0.43 0.11,0.61 0.07,0.19 0.2,0.34 0.37,0.45 0.17,0.11 0.35,0.16 0.54,0.16 0.29,0 0.53,-0.1 0.75,-0.32 0.22,-0.21 0.37,-0.5 0.46,-0.87 0.08,-0.37 0.12,-0.93 0.14,-1.68zm3.4 4.57l0.18 -2.75 0.06 -1.57c0.01,-0.29 0.01,-0.58 0.01,-0.88 0,-0.3 -0.01,-0.67 -0.01,-1.12 0.47,0.01 0.84,0.02 1.12,0.02 0.32,0 0.7,-0.01 1.12,-0.02l-0.03 0.71c0.16,-0.18 0.28,-0.32 0.38,-0.4 0.1,-0.09 0.21,-0.17 0.33,-0.24 0.13,-0.08 0.26,-0.13 0.4,-0.17 0.13,-0.03 0.28,-0.05 0.43,-0.05 0.14,0 0.29,0.02 0.47,0.07 0,0.44 0.01,0.81 0.03,1.11l0.04 0.95c-0.22,-0.07 -0.42,-0.1 -0.61,-0.1 -0.23,0 -0.44,0.03 -0.61,0.1 -0.17,0.08 -0.32,0.19 -0.45,0.33 -0.13,0.15 -0.23,0.33 -0.31,0.55 -0.08,0.22 -0.14,0.56 -0.17,1.04 -0.03,0.47 -0.04,1.01 -0.04,1.62 0,0.22 0,0.48 0.02,0.8 -0.38,-0.01 -0.76,-0.01 -1.14,-0.01 -0.38,0 -0.79,0 -1.22,0.01zm4.23 -1.77c0.47,0 0.85,0.39 0.85,0.87 0,0.48 -0.38,0.88 -0.85,0.88 -0.47,0 -0.85,-0.4 -0.85,-0.88 0,-0.48 0.38,-0.87 0.85,-0.87z"/>
     </g>
    </g>
   </g>
   <path class="fil0" d="M3.47 1.11l24.96 0c1.25,0 2.27,1.03 2.27,2.28l0 21.11c0,2.61 -2.93,4.74 -5.82,5.06 -2.25,0.31 -0.13,-1.18 -1.57,-2.79l-19.84 0c-1.25,0 -2.27,-1.02 -2.27,-2.27l0 -21.11c0,-1.25 1.02,-2.28 2.27,-2.28z"/>
  </g>
 </g>
</svg>
